<svg width="60.000000" height="58.000000" viewBox="0 0 60 58" fill="none" xmlns="http://www.w3.org/2000/svg" xmlns:xlink="http://www.w3.org/1999/xlink">
	<desc>
			Created with Pixso.
	</desc>
	<defs>
		<filter id="filter_27_70_dd" x="4.000000" y="0.000000" width="56.000000" height="56.000000" filterUnits="userSpaceOnUse" color-interpolation-filters="sRGB">
			<feFlood flood-opacity="0" result="BackgroundImageFix"/>
			<feColorMatrix in="SourceAlpha" type="matrix" values="0 0 0 0 0 0 0 0 0 0 0 0 0 0 0 0 0 0 127 0" result="hardAlpha"/>
			<feOffset dx="3" dy="3"/>
			<feGaussianBlur stdDeviation="1"/>
			<feComposite in2="hardAlpha" operator="out" k2="-1" k3="1"/>
			<feColorMatrix type="matrix" values="0 0 0 0 0 0 0 0 0 0 0 0 0 0 0 0 0 0 0.25 0"/>
			<feBlend mode="normal" in2="BackgroundImageFix" result="effect_dropShadow_1"/>
			<feBlend mode="normal" in="SourceGraphic" in2="effect_dropShadow_1" result="shape"/>
		</filter>
		<filter id="filter_27_72_dd" x="0.000000" y="0.000000" width="58.000000" height="58.000000" filterUnits="userSpaceOnUse" color-interpolation-filters="sRGB">
			<feFlood flood-opacity="0" result="BackgroundImageFix"/>
			<feColorMatrix in="SourceAlpha" type="matrix" values="0 0 0 0 0 0 0 0 0 0 0 0 0 0 0 0 0 0 127 0" result="hardAlpha"/>
			<feOffset dx="0" dy="4"/>
			<feGaussianBlur stdDeviation="1.33333"/>
			<feComposite in2="hardAlpha" operator="out" k2="-1" k3="1"/>
			<feColorMatrix type="matrix" values="0 0 0 0 0 0 0 0 0 0 0 0 0 0 0 0 0 0 0.25 0"/>
			<feBlend mode="normal" in2="BackgroundImageFix" result="effect_dropShadow_1"/>
			<feBlend mode="normal" in="SourceGraphic" in2="effect_dropShadow_1" result="shape"/>
		</filter>
		<clipPath id="clip27_72">
			<rect id="Телега" width="50.000000" height="50.000000" transform="translate(4.000000 0.000000)" fill="white" fill-opacity="0"/>
		</clipPath>
		<linearGradient x1="29.000002" y1="0.000000" x2="29.000002" y2="49.817600" id="paint_linear_27_70_0" gradientUnits="userSpaceOnUse">
			<stop offset="0.994716" stop-color="#686766" stop-opacity="0.980392"/>
			<stop offset="1.000000" stop-color="#22A6DC"/>
		</linearGradient>
	</defs>
	<g filter="url(#filter_27_70_dd)">
		<path id="Vector" d="M54 25C54 38.8 42.8 50 29 50C15.19 50 4 38.8 4 25C4 11.19 15.19 0 29 0C42.8 0 54 11.19 54 25Z" fill="url(#paint_linear_27_70_0)" fill-opacity="1.000000" fill-rule="evenodd"/>
		<path id="Vector" d="M29 50C42.8 50 54 38.8 54 25C54 11.19 42.8 0 29 0C15.19 0 4 11.19 4 25C4 38.8 15.19 50 29 50ZM37.82 46.31C35.11 47.43 32.17 48 29 48C25.82 48 22.88 47.43 20.17 46.31C17.46 45.19 14.98 43.5 12.73 41.26C10.49 39.01 8.8 36.53 7.68 33.82C6.56 31.11 6 28.17 6 25C6 21.82 6.56 18.88 7.68 16.17C8.8 13.46 10.49 10.98 12.73 8.73C14.98 6.49 17.46 4.8 20.17 3.68C22.88 2.56 25.82 2 29 2C32.17 2 35.11 2.56 37.82 3.68C40.53 4.8 43.01 6.49 45.26 8.73C47.5 10.98 49.19 13.46 50.31 16.17C51.43 18.88 52 21.82 52 25C52 28.17 51.43 31.11 50.31 33.82C49.19 36.53 47.5 39.01 45.26 41.26C43.01 43.5 40.53 45.19 37.82 46.31Z" fill="#FFECF0" fill-opacity="1.000000" fill-rule="evenodd"/>
	</g>
	<g filter="url(#filter_27_72_dd)">
		<g clip-path="url(#clip27_72)">
			<path id="Vector" d="M17 17.5L17 31.65C17 32.42 17.56 33.05 18.34 33.05L40.43 33.05C41.2 33.05 41.77 32.42 41.77 31.65L41.77 17.5C41.77 16.65 41.26 16 40.43 16L18.34 16C17.47 16 17 16.67 17 17.5ZM19.03 18.73C19.03 18.39 19.24 18.19 19.57 18.19C19.77 18.19 27.8 23.28 28.29 23.58L29.54 24.36C29.94 24.09 30.34 23.87 30.75 23.59C31.6 23.05 39.1 18.19 39.3 18.19C39.63 18.19 39.84 18.39 39.84 18.73C39.84 19.09 39.14 19.45 38.69 19.73C35.84 21.46 33 23.35 30.18 25.15C30.01 25.27 29.69 25.5 29.45 25.47C29.19 25.43 21.02 20.18 19.53 19.3C19.31 19.17 19.03 19.05 19.03 18.73Z" fill="#CD7F09" fill-opacity="1.000000" fill-rule="evenodd"/>
		</g>
	</g>
</svg>
