<svg width="58.000000" height="58.000000" viewBox="0 0 58 58" fill="none" xmlns="http://www.w3.org/2000/svg" xmlns:xlink="http://www.w3.org/1999/xlink">
	<desc>
			Created with Pixso.
	</desc>
	<defs>
		<clipPath id="clip40_22">
			<rect id="Часы работы" width="58.000000" height="58.000000" fill="white" fill-opacity="0"/>
		</clipPath>
	</defs>
	<g clip-path="url(#clip40_22)">
		<path id="path" d="M37.35 44.79C37.35 39.32 41.78 34.89 47.25 34.89C48.58 34.89 49.84 35.15 51 35.63C51.6 33.47 51.92 31.19 51.92 28.84C51.92 14.73 40.49 3.3 26.38 3.3C12.28 3.3 0.84 14.73 0.84 28.84C0.84 42.94 12.28 54.37 26.38 54.37C31.13 54.37 35.58 53.07 39.39 50.81C38.11 49.14 37.35 47.06 37.35 44.79Z" fill="#74B9DF" fill-opacity="1.000000" fill-rule="nonzero"/>
		<g opacity="0.100000">
			<path id="path" d="M3.95 28.84C3.95 15.25 14.55 4.15 27.93 3.35C27.42 3.32 26.9 3.3 26.38 3.3C12.28 3.3 0.84 14.73 0.84 28.84C0.84 42.94 12.28 54.37 26.38 54.37C26.9 54.37 27.42 54.36 27.93 54.32C14.55 53.52 3.95 42.42 3.95 28.84Z" fill="#000000" fill-opacity="1.000000" fill-rule="nonzero"/>
		</g>
		<path id="path" d="M37.35 44.79C37.35 40 40.75 36 45.28 35.09C45.93 33.12 46.28 31.02 46.28 28.84C46.28 17.85 37.37 8.94 26.38 8.94C15.39 8.94 6.48 17.85 6.48 28.84C6.48 39.83 15.39 48.74 26.38 48.74C30.44 48.74 34.22 47.52 37.37 45.43C37.35 45.22 37.35 45.01 37.35 44.79Z" fill="#FFFFFF" fill-opacity="1.000000" fill-rule="nonzero"/>
		<g opacity="0.100000">
			<path id="path" d="M10.18 28.84C10.18 18.47 18.11 9.96 28.23 9.02C27.62 8.97 27.01 8.94 26.38 8.94C15.39 8.94 6.48 17.85 6.48 28.84C6.48 39.83 15.39 48.74 26.38 48.74C27.01 48.74 27.62 48.7 28.23 48.65C18.11 47.72 10.18 39.2 10.18 28.84Z" fill="#000000" fill-opacity="1.000000" fill-rule="nonzero"/>
		</g>
		<ellipse id="circle" cx="26.386818" cy="28.841309" rx="2.772456" ry="2.772457" fill="#EF5A50" fill-opacity="1.000000"/>
		<path id="path" d="M19.29 30.03C19.29 30.34 19.04 30.6 18.73 30.6L13.74 30.6C13.43 30.6 13.17 30.34 13.17 30.03L13.17 27.64C13.17 27.33 13.43 27.07 13.74 27.07L18.73 27.07C19.04 27.07 19.29 27.33 19.29 27.64L19.29 30.03Z" fill="#ABCCD3" fill-opacity="1.000000" fill-rule="nonzero"/>
		<path id="path" d="M57.15 44.79C57.15 50.26 52.71 54.69 47.25 54.69C41.78 54.69 37.35 50.26 37.35 44.79C37.35 39.32 41.78 34.89 47.25 34.89C52.71 34.89 57.15 39.32 57.15 44.79Z" fill="#86D5B5" fill-opacity="1.000000" fill-rule="nonzero"/>
		<g opacity="0.100000">
			<path id="path" d="M39.45 44.79C39.45 39.68 43.33 35.47 48.3 34.95C47.95 34.91 47.6 34.89 47.25 34.89C41.78 34.89 37.35 39.32 37.35 44.79C37.35 50.26 41.78 54.69 47.25 54.69C47.6 54.69 47.95 54.67 48.3 54.64C43.33 54.11 39.45 49.9 39.45 44.79Z" fill="#000000" fill-opacity="1.000000" fill-rule="nonzero"/>
		</g>
		<path id="path" d="M45.98 49.68C45.35 49.68 44.74 49.42 44.3 48.97L41.39 46.01C40.7 45.31 40.71 44.18 41.42 43.49C42.12 42.8 43.25 42.81 43.94 43.51L45.98 45.6L50.14 41.34C50.83 40.63 51.96 40.62 52.66 41.31C53.37 41.99 53.38 43.12 52.69 43.82L47.67 48.97C47.23 49.42 46.61 49.68 45.98 49.68Z" fill="#FFFFFF" fill-opacity="1.000000" fill-rule="nonzero"/>
		<path id="path" d="M26.38 14.42C25.91 14.42 25.53 14.8 25.53 15.27L25.53 25.32C23.94 25.7 22.76 27.13 22.76 28.84C22.76 30.83 24.38 32.46 26.38 32.46C28.09 32.46 29.52 31.27 29.9 29.69L37.43 29.69C37.9 29.69 38.28 29.31 38.28 28.84C38.28 28.37 37.9 27.99 37.43 27.99L29.9 27.99C29.58 26.67 28.55 25.63 27.23 25.32L27.23 15.27C27.23 14.8 26.85 14.42 26.38 14.42ZM28.3 28.84C28.3 29.9 27.44 30.76 26.38 30.76C25.32 30.76 24.46 29.9 24.46 28.84C24.46 27.78 25.32 26.91 26.38 26.91C27.44 26.91 28.3 27.78 28.3 28.84Z" fill="#000000" fill-opacity="1.000000" fill-rule="nonzero"/>
		<path id="path" d="M13.74 26.22C12.96 26.22 12.32 26.86 12.32 27.64L12.32 30.03C12.32 30.81 12.96 31.45 13.74 31.45L18.73 31.45C19.51 31.45 20.14 30.81 20.14 30.03L20.14 27.64C20.14 26.86 19.51 26.22 18.73 26.22L13.74 26.22ZM18.44 29.75L14.02 29.75L14.02 27.92L18.44 27.92L18.44 29.75Z" fill="#000000" fill-opacity="1.000000" fill-rule="nonzero"/>
		<path id="path" d="M52 35.15C52.51 33.12 52.77 31 52.77 28.84C52.77 21.79 50.02 15.16 45.04 10.18C40.06 5.19 33.43 2.45 26.38 2.45C19.33 2.45 12.71 5.19 7.72 10.18C2.74 15.16 7.62e-6 21.79 7.62e-6 28.84C7.62e-6 35.88 2.74 42.51 7.72 47.49C12.71 52.48 19.33 55.22 26.38 55.22C28.24 55.22 30.09 55.03 31.89 54.65C32.35 54.55 32.64 54.1 32.55 53.64C32.45 53.18 32 52.89 31.54 52.98C29.85 53.34 28.12 53.52 26.38 53.52C19.79 53.52 13.59 50.95 8.93 46.29C4.26 41.63 1.69 35.43 1.69 28.84C1.69 22.24 4.26 16.04 8.93 11.38C13.59 6.72 19.79 4.15 26.38 4.15C32.98 4.15 39.18 6.72 43.84 11.38C48.5 16.04 51.07 22.24 51.07 28.84C51.07 30.78 50.84 32.68 50.41 34.52C49.41 34.21 48.35 34.04 47.25 34.04C46.98 34.04 46.72 34.05 46.46 34.07C46.9 32.4 47.13 30.64 47.13 28.84C47.13 27.01 46.89 25.2 46.42 23.45C46.3 23 45.84 22.73 45.38 22.85C44.93 22.97 44.66 23.44 44.78 23.89C45.14 25.22 45.35 26.6 45.41 27.99L43.83 27.99C43.36 27.99 42.98 28.37 42.98 28.84C42.98 29.31 43.36 29.69 43.83 29.69L45.41 29.69C45.34 31.31 45.06 32.88 44.61 34.37C39.95 35.55 36.5 39.77 36.5 44.79C36.5 44.85 36.5 44.91 36.5 44.97C33.79 46.67 30.63 47.72 27.23 47.87L27.23 46.28C27.23 45.81 26.85 45.43 26.38 45.43C25.91 45.43 25.53 45.81 25.53 46.28L25.53 47.87C20.92 47.66 16.73 45.81 13.53 42.89L14.65 41.77C14.98 41.44 14.98 40.9 14.65 40.57C14.32 40.24 13.78 40.24 13.45 40.57L12.33 41.68C9.26 38.33 7.38 33.89 7.33 29.01L8.71 29.01C9.18 29.01 9.56 28.63 9.56 28.16C9.56 27.69 9.18 27.31 8.71 27.31L7.39 27.31C7.74 22.96 9.55 19.02 12.33 15.99L13.45 17.1C13.61 17.27 13.83 17.35 14.05 17.35C14.26 17.35 14.48 17.27 14.65 17.1C14.98 16.77 14.98 16.23 14.65 15.9L13.53 14.79C16.73 11.86 20.92 10.01 25.53 9.81L25.53 11.39C25.53 11.86 25.91 12.24 26.38 12.24C26.85 12.24 27.23 11.86 27.23 11.39L27.23 9.81C30.3 9.94 33.3 10.82 35.94 12.36C37.13 13.04 38.23 13.86 39.24 14.78L38.12 15.9C37.78 16.23 37.78 16.77 38.12 17.1C38.28 17.27 38.5 17.35 38.72 17.35C38.93 17.35 39.15 17.27 39.32 17.1L40.44 15.98C41.32 16.94 42.1 17.99 42.77 19.12C43.01 19.52 43.53 19.65 43.93 19.41C44.34 19.17 44.47 18.65 44.23 18.25C42.42 15.21 39.85 12.66 36.8 10.89C33.65 9.05 30.05 8.09 26.38 8.09C14.94 8.09 5.63 17.39 5.63 28.84C5.63 40.28 14.94 49.59 26.38 49.59C30.13 49.59 33.65 48.58 36.69 46.83C36.95 48.17 37.46 49.42 38.16 50.54C37.47 50.91 36.76 51.25 36.03 51.57C35.6 51.75 35.4 52.25 35.58 52.68C35.76 53.11 36.26 53.31 36.69 53.13C37.56 52.76 38.39 52.36 39.2 51.91C41.17 54.13 44.05 55.54 47.25 55.54C49.35 55.54 51.39 54.93 53.15 53.78C53.54 53.52 53.65 52.99 53.39 52.6C53.13 52.21 52.6 52.1 52.21 52.36C50.74 53.33 49.02 53.84 47.25 53.84C42.26 53.84 38.2 49.78 38.2 44.79C38.2 39.8 42.26 35.74 47.25 35.74C52.24 35.74 56.3 39.8 56.3 44.79C56.3 46.38 55.88 47.94 55.09 49.31C54.85 49.72 54.99 50.24 55.4 50.47C55.81 50.7 56.33 50.57 56.56 50.16C57.5 48.53 57.99 46.68 57.99 44.79C58 40.57 55.55 36.91 52 35.15Z" fill="#000000" fill-opacity="1.000000" fill-rule="nonzero"/>
		<path id="path" d="M51.42 39.95C50.7 39.95 50.04 40.23 49.54 40.74L45.98 44.39L44.54 42.92C44.04 42.41 43.38 42.13 42.66 42.13C41.97 42.13 41.32 42.4 40.82 42.88C39.79 43.9 39.77 45.57 40.79 46.6L43.69 49.57C44.29 50.18 45.13 50.53 45.98 50.53C46.84 50.53 47.68 50.18 48.28 49.56L53.3 44.42C54.32 43.38 54.3 41.71 53.26 40.7C52.76 40.21 52.11 39.95 51.42 39.95ZM52.09 43.23L47.07 48.37C46.78 48.66 46.39 48.83 45.98 48.83C45.58 48.83 45.19 48.67 44.9 48.38L42 45.41C41.64 45.05 41.65 44.46 42.01 44.1C42.19 43.92 42.42 43.83 42.66 43.83C42.92 43.83 43.15 43.93 43.33 44.11L45.37 46.2C45.53 46.36 45.75 46.45 45.98 46.45C46.21 46.45 46.43 46.36 46.59 46.19L50.75 41.93C50.93 41.75 51.17 41.65 51.42 41.65C51.66 41.65 51.89 41.74 52.07 41.91C52.44 42.27 52.45 42.86 52.09 43.23Z" fill="#000000" fill-opacity="1.000000" fill-rule="nonzero"/>
	</g>
</svg>
