<svg width="58.000000" height="58.000000" viewBox="0 0 58 58" fill="none" xmlns="http://www.w3.org/2000/svg" xmlns:xlink="http://www.w3.org/1999/xlink">
	<desc>
			Created with Pixso.
	</desc>
	<defs>
		<filter id="filter_27_59_dd" x="0.000000" y="0.000000" width="58.000000" height="58.000000" filterUnits="userSpaceOnUse" color-interpolation-filters="sRGB">
			<feFlood flood-opacity="0" result="BackgroundImageFix"/>
			<feColorMatrix in="SourceAlpha" type="matrix" values="0 0 0 0 0 0 0 0 0 0 0 0 0 0 0 0 0 0 127 0" result="hardAlpha"/>
			<feOffset dx="3" dy="3"/>
			<feGaussianBlur stdDeviation="1"/>
			<feComposite in2="hardAlpha" operator="out" k2="-1" k3="1"/>
			<feColorMatrix type="matrix" values="0 0 0 0 0 0 0 0 0 0 0 0 0 0 0 0 0 0 0.25 0"/>
			<feBlend mode="normal" in2="BackgroundImageFix" result="effect_dropShadow_1"/>
			<feBlend mode="normal" in="SourceGraphic" in2="effect_dropShadow_1" result="shape"/>
		</filter>
	</defs>
	<g filter="url(#filter_27_59_dd)">
		<path id="Vector" d="M51 26C51 39.8 39.8 51 26 51C12.19 51 1 39.8 1 26C1 12.19 12.19 1 26 1C39.8 1 51 12.19 51 26Z" fill="#686766" fill-opacity="0.980000" fill-rule="evenodd"/>
		<path id="Vector" d="M26 51C12.19 51 1 39.8 1 26C1 12.19 12.19 1 26 1C39.8 1 51 12.19 51 26C51 39.8 39.8 51 26 51Z" stroke="#FFECF0" stroke-opacity="1.000000" stroke-width="2.000000"/>
		<path id="Vector" d="M25.17 9.04C16.21 9.47 9.13 16.93 9.16 25.91C9.17 28.64 9.83 31.22 10.99 33.5L9.2 42.18C9.11 42.65 9.53 43.06 10 42.95L18.5 40.94C20.68 42.02 23.14 42.65 25.73 42.69C34.9 42.83 42.54 35.56 42.82 26.4C43.13 16.58 35.02 8.57 25.17 9.04ZM35.32 35.18C32.83 37.67 29.52 39.04 26 39.04C23.93 39.04 21.96 38.58 20.13 37.67L18.94 37.08L13.73 38.31L14.83 32.98L14.24 31.84C13.29 29.98 12.81 27.97 12.81 25.86C12.81 22.34 14.18 19.03 16.67 16.54C19.14 14.07 22.5 12.67 26 12.67C29.52 12.67 32.83 14.05 35.32 16.54C37.81 19.03 39.18 22.34 39.18 25.86C39.18 29.35 37.78 32.71 35.32 35.18Z" fill="#1AF572" fill-opacity="1.000000" fill-rule="evenodd"/>
		<path id="Vector" d="M34.17 29.51L30.9 28.57C30.48 28.45 30.01 28.57 29.7 28.89L28.9 29.7C28.57 30.04 28.06 30.15 27.61 29.97C26.07 29.35 22.82 26.46 22 25.02C21.76 24.61 21.8 24.09 22.09 23.7L22.79 22.8C23.06 22.45 23.12 21.98 22.94 21.57L21.56 18.47C21.24 17.72 20.29 17.51 19.67 18.03C18.76 18.8 17.68 19.97 17.54 21.27C17.31 23.55 18.29 26.43 22 29.89C26.28 33.89 29.71 34.41 31.94 33.87C33.21 33.57 34.22 32.34 34.86 31.33C35.29 30.64 34.95 29.73 34.17 29.51Z" fill="#1AF572" fill-opacity="1.000000" fill-rule="evenodd"/>
	</g>
</svg>
